<svg width="100" height="80" viewBox="0 0 100 80" fill="none" xmlns="http://www.w3.org/2000/svg">
<g clip-path="url(#clip0_451_13)">
<path d="M22.7273 79.6064V38.6075L10.7449 26.9752L0 20.52V72.3712C0 76.3745 3.05664 79.6064 6.81836 79.6064H22.7273Z" fill="#4285F4"/>
<path d="M77.2725 79.606H93.1814C96.9545 79.606 99.9998 76.3621 99.9998 72.3708V20.52L87.8295 27.9136L77.2725 38.6071V79.606Z" fill="#34A853"/>
<path d="M22.7271 38.6071L21.0967 22.5876L22.7271 7.25537L49.9998 28.9607L77.2725 7.25537L79.0963 21.7598L77.2725 38.6071L49.9998 60.3124L22.7271 38.6071Z" fill="#EA4335"/>
<path d="M77.2725 7.25542V38.6071L99.9998 20.5197V10.8728C99.9998 1.92568 90.3748 -3.17484 83.6365 2.19096L77.2725 7.25542Z" fill="#FBBC04"/>
<path d="M0 20.5199L10.4527 28.839L22.7273 38.6073V7.25561L16.3633 2.19115C9.61328 -3.17507 0 1.92586 0 10.8726V20.5194V20.5199Z" fill="#C5221F"/>
</g>
<defs>
<clipPath id="clip0_451_13">
<rect width="100" height="80" fill="white"/>
</clipPath>
</defs>
</svg>
