<svg width="100" height="100" viewBox="0 0 100 100" fill="none" xmlns="http://www.w3.org/2000/svg">
<g clip-path="url(#clip0_451_9)">
<path d="M2.13379 49.4016C2.13145 57.8035 4.34395 66.0074 8.55098 73.2384L1.73145 97.9446L27.2127 91.3151C34.2605 95.1221 42.157 97.117 50.1814 97.1175H50.2025C76.6928 97.1175 98.2564 75.7287 98.2678 49.4392C98.2729 36.7 93.2775 24.7209 84.2018 15.7085C75.1275 6.6969 63.0592 1.7314 50.2006 1.72559C23.7072 1.72559 2.14512 23.1132 2.13418 49.4016" fill="url(#paint0_linear_451_9)"/>
<path d="M0.417969 49.386C0.415234 58.0903 2.70703 66.5876 7.06406 74.0775L0 99.6694L26.3949 92.8023C33.6676 96.7368 41.8559 98.8112 50.1879 98.8143H50.2094C77.65 98.8143 99.9883 76.6562 100 49.4256C100.005 36.2287 94.8297 23.819 85.4297 14.4837C76.0285 5.14961 63.5285 0.00542636 50.2094 0C22.7641 0 0.428906 22.155 0.417969 49.386ZM16.1367 72.7876L15.1512 71.2353C11.0082 64.6988 8.82148 57.1454 8.82461 49.3891C8.83359 26.7554 27.3977 8.34109 50.225 8.34109C61.2797 8.34574 71.6687 12.6217 79.4828 20.3798C87.2965 28.1388 91.5961 38.4527 91.5934 49.4225C91.5832 72.0562 73.0187 90.4729 50.2094 90.4729H50.193C42.766 90.469 35.482 88.4899 29.1297 84.75L27.618 83.8605L11.9547 87.9353L16.1367 72.7872V72.7876Z" fill="url(#paint1_linear_451_9)"/>
<path d="M37.7646 28.7393C36.8326 26.6839 35.8518 26.6424 34.9654 26.6064C34.2396 26.5753 33.41 26.5777 32.5811 26.5777C31.7514 26.5777 30.4033 26.8874 29.2639 28.1219C28.1232 29.3575 24.9092 32.3436 24.9092 38.4168C24.9092 44.4905 29.3674 50.3598 29.9889 51.1843C30.6111 52.0071 38.5955 64.8691 51.2408 69.8172C61.7502 73.9292 63.8889 73.1114 66.1697 72.9052C68.451 72.6998 73.5307 69.9199 74.567 67.0374C75.6041 64.1552 75.6041 61.6847 75.2932 61.1684C74.9822 60.654 74.1525 60.3451 72.9084 59.7281C71.6639 59.1106 65.5475 56.1242 64.4072 55.7122C63.2666 55.3005 62.4373 55.0951 61.6076 56.3312C60.7779 57.5653 58.3955 60.3451 57.6693 61.1684C56.9439 61.9936 56.2178 62.0963 54.974 61.4788C53.7291 60.8595 49.7225 59.5575 44.9689 55.3525C41.2705 52.0804 38.7736 48.0397 38.0479 46.8036C37.3221 45.5695 37.9701 44.9005 38.5939 44.2854C39.1529 43.7323 39.8385 42.844 40.4611 42.1234C41.0814 41.4025 41.2885 40.8881 41.7033 40.0649C42.1186 39.2409 41.9107 38.5199 41.6002 37.9025C41.2885 37.285 38.8709 31.18 37.7646 28.7393Z" fill="white"/>
</g>
<defs>
<linearGradient id="paint0_linear_451_9" x1="4828.55" y1="9623.63" x2="4828.55" y2="1.72559" gradientUnits="userSpaceOnUse">
<stop stop-color="#1FAF38"/>
<stop offset="1" stop-color="#60D669"/>
</linearGradient>
<linearGradient id="paint1_linear_451_9" x1="5000" y1="9966.94" x2="5000" y2="0" gradientUnits="userSpaceOnUse">
<stop stop-color="#F9F9F9"/>
<stop offset="1" stop-color="white"/>
</linearGradient>
<clipPath id="clip0_451_9">
<rect width="100" height="100" fill="white"/>
</clipPath>
</defs>
</svg>
